<svg width="90" height="90" viewBox="0 0 90 90" fill="none" xmlns="http://www.w3.org/2000/svg">
<g clip-path="url(#clip0)">
<circle cx="5" cy="5" r="5" fill="#F6F8FB"/>
<circle cx="21" cy="5" r="5" fill="#F6F8FB"/>
<circle cx="37" cy="5" r="5" fill="#F6F8FB"/>
<circle cx="53" cy="5" r="5" fill="#F6F8FB"/>
<circle cx="69" cy="5" r="5" fill="#F6F8FB"/>
<circle cx="85" cy="5" r="5" fill="#F6F8FB"/>
<circle cx="5" cy="21" r="5" fill="#F6F8FB"/>
<circle cx="21" cy="21" r="5" fill="#F6F8FB"/>
<circle cx="37" cy="21" r="5" fill="#F6F8FB"/>
<circle cx="53" cy="21" r="5" fill="#F6F8FB"/>
<circle cx="69" cy="21" r="5" fill="#F6F8FB"/>
<circle cx="85" cy="21" r="5" fill="#F6F8FB"/>
<circle cx="5" cy="37" r="5" fill="#F6F8FB"/>
<circle cx="21" cy="37" r="5" fill="#F6F8FB"/>
<circle cx="37" cy="37" r="5" fill="#F6F8FB"/>
<circle cx="53" cy="37" r="5" fill="#F6F8FB"/>
<circle cx="69" cy="37" r="5" fill="#F6F8FB"/>
<circle cx="85" cy="37" r="5" fill="#F6F8FB"/>
<circle cx="5" cy="53" r="5" fill="#F6F8FB"/>
<circle cx="21" cy="53" r="5" fill="#F6F8FB"/>
<circle cx="37" cy="53" r="5" fill="#F6F8FB"/>
<circle cx="53" cy="53" r="5" fill="#F6F8FB"/>
<circle cx="69" cy="53" r="5" fill="#F6F8FB"/>
<circle cx="85" cy="53" r="5" fill="#F6F8FB"/>
<circle cx="5" cy="69" r="5" fill="#F6F8FB"/>
<circle cx="21" cy="69" r="5" fill="#F6F8FB"/>
<circle cx="37" cy="69" r="5" fill="#F6F8FB"/>
<circle cx="53" cy="69" r="5" fill="#F6F8FB"/>
<circle cx="69" cy="69" r="5" fill="#F6F8FB"/>
<circle cx="85" cy="69" r="5" fill="#F6F8FB"/>
<circle cx="5" cy="85" r="5" fill="#F6F8FB"/>
<circle cx="21" cy="85" r="5" fill="#F6F8FB"/>
<circle cx="37" cy="85" r="5" fill="#F6F8FB"/>
<circle cx="53" cy="85" r="5" fill="#F6F8FB"/>
<circle cx="69" cy="85" r="5" fill="#F6F8FB"/>
<circle cx="85" cy="85" r="5" fill="#F6F8FB"/>
</g>
<defs>
<clipPath id="clip0">
<rect width="90" height="90" fill="white"/>
</clipPath>
</defs>
</svg>
