<svg width="38" height="53" viewBox="0 0 38 53" fill="none" xmlns="http://www.w3.org/2000/svg">
    <path d="M16.066 35.296c0-2.592.576-4.728 1.728-6.408 1.2-1.728 2.928-3.6 5.184-5.616 1.728-1.536 3-2.856 3.816-3.96a6.318 6.318 0 0 0 1.296-3.888c0-2.016-.816-3.648-2.448-4.896-1.632-1.248-3.816-1.872-6.552-1.872-5.184 0-9.096 1.848-11.736 5.544L.37 9.664c2.064-2.832 4.728-4.992 7.992-6.48C11.626 1.648 15.466.88 19.882.88c5.376 0 9.648 1.176 12.816 3.528 3.216 2.304 4.824 5.496 4.824 9.576 0 1.968-.336 3.696-1.008 5.184-.624 1.488-1.392 2.76-2.304 3.816-.912 1.008-2.112 2.184-3.6 3.528-1.824 1.632-3.192 3.072-4.104 4.32-.864 1.248-1.296 2.736-1.296 4.464h-9.144zm4.608 17.208c-1.68 0-3.072-.528-4.176-1.584-1.056-1.104-1.584-2.448-1.584-4.032s.528-2.904 1.584-3.96c1.104-1.056 2.496-1.584 4.176-1.584 1.632 0 2.976.528 4.032 1.584 1.104 1.056 1.656 2.376 1.656 3.96s-.552 2.928-1.656 4.032c-1.056 1.056-2.4 1.584-4.032 1.584z" fill="#EDF1F7"/>
</svg>
