<svg width="30" height="30" viewBox="0 0 30 30" fill="none" xmlns="http://www.w3.org/2000/svg">
    <path fill-rule="evenodd" clip-rule="evenodd" d="M0 25.147c0 2.451 2.015 4.438 4.5 4.438h21c2.485 0 4.5-1.987 4.5-4.438V4.437C30 1.988 27.985 0 25.5 0h-21C2.015 0 0 1.987 0 4.438v20.71zm27 0a1.49 1.49 0 0 1-1.5 1.48h-21a1.49 1.49 0 0 1-1.5-1.48V4.437c0-.816.672-1.479 1.5-1.479H12v11.85l3.592.001L18 11.633l2.408 3.176H24V2.959h1.5c.828 0 1.5.662 1.5 1.479v20.71zM21 2.96h-6v7.893l3-3.958 3 3.957V2.958z" fill="#F90"/>
    <path fill-rule="evenodd" clip-rule="evenodd" d="M0 25.147c0 2.451 2.015 4.438 4.5 4.438h21c2.485 0 4.5-1.987 4.5-4.438V4.437C30 1.988 27.985 0 25.5 0h-21C2.015 0 0 1.987 0 4.438v20.71zm27 0a1.49 1.49 0 0 1-1.5 1.48h-21a1.49 1.49 0 0 1-1.5-1.48V4.437c0-.816.672-1.479 1.5-1.479H12v11.85l3.592.001L18 11.633l2.408 3.176H24V2.959h1.5c.828 0 1.5.662 1.5 1.479v20.71zM21 2.96h-6v7.893l3-3.958 3 3.957V2.958z" fill="url(#a)" fill-opacity=".35"/>
    <defs>
        <linearGradient id="a" x1="28.235" y1="23.494" x2="4.677" y2="4.029" gradientUnits="userSpaceOnUse">
            <stop stop-color="#fff"/>
            <stop offset="1" stop-color="#fff" stop-opacity="0"/>
        </linearGradient>
    </defs>
</svg>
