<svg width="24" height="24" viewBox="0 0 24 24" fill="none" xmlns="http://www.w3.org/2000/svg">
    <g filter="url(#a)" fill="#fff">
        <path d="M8.464 7.757L7.05 9.172 9.88 12 7.05 14.828l1.415 1.415L12.707 12 8.464 7.757z"/>
        <path d="M11.293 9.172l1.414-1.415L16.95 12l-4.243 4.243-1.414-1.415L14.12 12l-2.828-2.828z"/>
        <path fill-rule="evenodd" clip-rule="evenodd" d="M23 5a4 4 0 0 0-4-4H5a4 4 0 0 0-4 4v14a4 4 0 0 0 4 4h14a4 4 0 0 0 4-4V5zm-4-2H5a2 2 0 0 0-2 2v14a2 2 0 0 0 2 2h14a2 2 0 0 0 2-2V5a2 2 0 0 0-2-2z"/>
    </g>
    <defs>
        <filter id="a" x="0" y="0" width="24" height="25" filterUnits="userSpaceOnUse" color-interpolation-filters="sRGB">
            <feFlood flood-opacity="0" result="BackgroundImageFix"/>
            <feColorMatrix in="SourceAlpha" values="0 0 0 0 0 0 0 0 0 0 0 0 0 0 0 0 0 0 127 0" result="hardAlpha"/>
            <feOffset dy="1"/>
            <feColorMatrix values="0 0 0 0 0.839216 0 0 0 0 0.47451 0 0 0 0 0.14902 0 0 0 1 0"/>
            <feBlend in2="BackgroundImageFix" result="effect1_dropShadow"/>
            <feBlend in="SourceGraphic" in2="effect1_dropShadow" result="shape"/>
        </filter>
    </defs>
</svg>
