<svg width="36" height="36" viewBox="0 0 36 36" fill="none" xmlns="http://www.w3.org/2000/svg">
<path d="M10.5 27H25.5V24H10.5V27Z" fill="#FF9900"/>
<path d="M10.5 27H25.5V24H10.5V27Z" fill="url(#paint0_linear)" fill-opacity="0.35"/>
<path d="M25.5 21H10.5V18H25.5V21Z" fill="#FF9900"/>
<path d="M25.5 21H10.5V18H25.5V21Z" fill="url(#paint1_linear)" fill-opacity="0.35"/>
<path d="M10.5 15H16.5V12H10.5V15Z" fill="#FF9900"/>
<path d="M10.5 15H16.5V12H10.5V15Z" fill="url(#paint2_linear)" fill-opacity="0.35"/>
<path fill-rule="evenodd" clip-rule="evenodd" d="M9 3C6.51472 3 4.5 5.01472 4.5 7.5V28.5C4.5 30.9853 6.51472 33 9 33H27C29.4853 33 31.5 30.9853 31.5 28.5V13.5C31.5 7.70101 26.799 3 21 3H9ZM9 6H19.5V13.5H28.5V28.5C28.5 29.3284 27.8284 30 27 30H9C8.17157 30 7.5 29.3284 7.5 28.5V7.5C7.5 6.67157 8.17157 6 9 6ZM22.5 6.15003C24.917 6.64065 26.9119 8.29358 27.8759 10.5H22.5V6.15003Z" fill="#FF9900"/>
<path fill-rule="evenodd" clip-rule="evenodd" d="M9 3C6.51472 3 4.5 5.01472 4.5 7.5V28.5C4.5 30.9853 6.51472 33 9 33H27C29.4853 33 31.5 30.9853 31.5 28.5V13.5C31.5 7.70101 26.799 3 21 3H9ZM9 6H19.5V13.5H28.5V28.5C28.5 29.3284 27.8284 30 27 30H9C8.17157 30 7.5 29.3284 7.5 28.5V7.5C7.5 6.67157 8.17157 6 9 6ZM22.5 6.15003C24.917 6.64065 26.9119 8.29358 27.8759 10.5H22.5V6.15003Z" fill="url(#paint3_linear)" fill-opacity="0.35"/>
<defs>
<linearGradient id="paint0_linear" x1="29.9118" y1="26.8235" x2="6.71175" y2="9.81018" gradientUnits="userSpaceOnUse">
<stop stop-color="white"/>
<stop offset="1" stop-color="white" stop-opacity="0"/>
</linearGradient>
<linearGradient id="paint1_linear" x1="29.9118" y1="26.8235" x2="6.71175" y2="9.81018" gradientUnits="userSpaceOnUse">
<stop stop-color="white"/>
<stop offset="1" stop-color="white" stop-opacity="0"/>
</linearGradient>
<linearGradient id="paint2_linear" x1="29.9118" y1="26.8235" x2="6.71175" y2="9.81018" gradientUnits="userSpaceOnUse">
<stop stop-color="white"/>
<stop offset="1" stop-color="white" stop-opacity="0"/>
</linearGradient>
<linearGradient id="paint3_linear" x1="29.9118" y1="26.8235" x2="6.71175" y2="9.81018" gradientUnits="userSpaceOnUse">
<stop stop-color="white"/>
<stop offset="1" stop-color="white" stop-opacity="0"/>
</linearGradient>
</defs>
</svg>
