<svg width="36" height="36" viewBox="0 0 36 36" fill="none" xmlns="http://www.w3.org/2000/svg">
    <path d="M10.5 27h15v-3h-15v3z" fill="#F90"/>
    <path d="M10.5 27h15v-3h-15v3z" fill="url(#a)" fill-opacity=".35"/>
    <path d="M25.5 21h-15v-3h15v3z" fill="#F90"/>
    <path d="M25.5 21h-15v-3h15v3z" fill="url(#b)" fill-opacity=".35"/>
    <path d="M10.5 15h6v-3h-6v3z" fill="#F90"/>
    <path d="M10.5 15h6v-3h-6v3z" fill="url(#c)" fill-opacity=".35"/>
    <path fill-rule="evenodd" clip-rule="evenodd" d="M9 3a4.5 4.5 0 0 0-4.5 4.5v21A4.5 4.5 0 0 0 9 33h18a4.5 4.5 0 0 0 4.5-4.5v-15C31.5 7.701 26.799 3 21 3H9zm0 3h10.5v7.5h9v15A1.5 1.5 0 0 1 27 30H9a1.5 1.5 0 0 1-1.5-1.5v-21A1.5 1.5 0 0 1 9 6zm13.5.15a7.513 7.513 0 0 1 5.376 4.35H22.5V6.15z" fill="#F90"/>
    <path fill-rule="evenodd" clip-rule="evenodd" d="M9 3a4.5 4.5 0 0 0-4.5 4.5v21A4.5 4.5 0 0 0 9 33h18a4.5 4.5 0 0 0 4.5-4.5v-15C31.5 7.701 26.799 3 21 3H9zm0 3h10.5v7.5h9v15A1.5 1.5 0 0 1 27 30H9a1.5 1.5 0 0 1-1.5-1.5v-21A1.5 1.5 0 0 1 9 6zm13.5.15a7.513 7.513 0 0 1 5.376 4.35H22.5V6.15z" fill="url(#d)" fill-opacity=".35"/>
    <defs>
        <linearGradient id="a" x1="29.912" y1="26.823" x2="6.712" y2="9.81" gradientUnits="userSpaceOnUse">
            <stop stop-color="#fff"/>
            <stop offset="1" stop-color="#fff" stop-opacity="0"/>
        </linearGradient>
        <linearGradient id="b" x1="29.912" y1="26.823" x2="6.712" y2="9.81" gradientUnits="userSpaceOnUse">
            <stop stop-color="#fff"/>
            <stop offset="1" stop-color="#fff" stop-opacity="0"/>
        </linearGradient>
        <linearGradient id="c" x1="29.912" y1="26.823" x2="6.712" y2="9.81" gradientUnits="userSpaceOnUse">
            <stop stop-color="#fff"/>
            <stop offset="1" stop-color="#fff" stop-opacity="0"/>
        </linearGradient>
        <linearGradient id="d" x1="29.912" y1="26.823" x2="6.712" y2="9.81" gradientUnits="userSpaceOnUse">
            <stop stop-color="#fff"/>
            <stop offset="1" stop-color="#fff" stop-opacity="0"/>
        </linearGradient>
    </defs>
</svg>
