<svg width="24" height="24" viewBox="0 0 24 24" fill="none" xmlns="http://www.w3.org/2000/svg">
<g filter="url(#filter0_di)">
<path d="M14 11H10V13H14V11Z" fill="#FFAA29"/>
<path fill-rule="evenodd" clip-rule="evenodd" d="M7 5V4C7 2.89545 7.89539 2 9 2H15C16.1046 2 17 2.89545 17 4V5H20C21.6569 5 23 6.34314 23 8V18C23 19.6569 21.6569 21 20 21H4C2.34314 21 1 19.6569 1 18V8C1 6.34314 2.34314 5 4 5H7ZM9 4H15V5H9V4ZM4 7C3.44775 7 3 7.44769 3 8V14H21V8C21 7.44769 20.5522 7 20 7H4ZM3 18V16H21V18C21 18.5523 20.5522 19 20 19H4C3.44775 19 3 18.5523 3 18Z" fill="#FFAA29"/>
</g>
<defs>
<filter id="filter0_di" x="0" y="0" width="24" height="25" filterUnits="userSpaceOnUse" color-interpolation-filters="sRGB">
<feFlood flood-opacity="0" result="BackgroundImageFix"/>
<feColorMatrix in="SourceAlpha" type="matrix" values="0 0 0 0 0 0 0 0 0 0 0 0 0 0 0 0 0 0 127 0" result="hardAlpha"/>
<feOffset dy="1"/>
<feColorMatrix type="matrix" values="0 0 0 0 0.72549 0 0 0 0 0.34902 0 0 0 0 0.215686 0 0 0 1 0"/>
<feBlend mode="normal" in2="BackgroundImageFix" result="effect1_dropShadow"/>
<feBlend mode="normal" in="SourceGraphic" in2="effect1_dropShadow" result="shape"/>
<feColorMatrix in="SourceAlpha" type="matrix" values="0 0 0 0 0 0 0 0 0 0 0 0 0 0 0 0 0 0 127 0" result="hardAlpha"/>
<feMorphology radius="5" operator="erode" in="SourceAlpha" result="effect2_innerShadow"/>
<feOffset/>
<feGaussianBlur stdDeviation="10"/>
<feComposite in2="hardAlpha" operator="arithmetic" k2="-1" k3="1"/>
<feColorMatrix type="matrix" values="0 0 0 0 1 0 0 0 0 1 0 0 0 0 1 0 0 0 0.15 0"/>
<feBlend mode="normal" in2="shape" result="effect2_innerShadow"/>
</filter>
</defs>
</svg>
