<svg width="36" height="36" viewBox="0 0 36 36" fill="none" xmlns="http://www.w3.org/2000/svg">
    <path d="M21 16.5h-6v3h6v-3z" fill="#F90"/>
    <path d="M21 16.5h-6v3h6v-3z" fill="url(#a)" fill-opacity=".35"/>
    <path fill-rule="evenodd" clip-rule="evenodd" d="M10.5 7.5V6a3 3 0 0 1 3-3h9a3 3 0 0 1 3 3v1.5H30a4.5 4.5 0 0 1 4.5 4.5v15a4.5 4.5 0 0 1-4.5 4.5H6A4.5 4.5 0 0 1 1.5 27V12A4.5 4.5 0 0 1 6 7.5h4.5zm3-1.5h9v1.5h-9V6zM6 10.5A1.5 1.5 0 0 0 4.5 12v9h27v-9a1.5 1.5 0 0 0-1.5-1.5H6zM4.5 27v-3h27v3a1.5 1.5 0 0 1-1.5 1.5H6A1.5 1.5 0 0 1 4.5 27z" fill="#F90"/>
    <path fill-rule="evenodd" clip-rule="evenodd" d="M10.5 7.5V6a3 3 0 0 1 3-3h9a3 3 0 0 1 3 3v1.5H30a4.5 4.5 0 0 1 4.5 4.5v15a4.5 4.5 0 0 1-4.5 4.5H6A4.5 4.5 0 0 1 1.5 27V12A4.5 4.5 0 0 1 6 7.5h4.5zm3-1.5h9v1.5h-9V6zM6 10.5A1.5 1.5 0 0 0 4.5 12v9h27v-9a1.5 1.5 0 0 0-1.5-1.5H6zM4.5 27v-3h27v3a1.5 1.5 0 0 1-1.5 1.5H6A1.5 1.5 0 0 1 4.5 27z" fill="url(#b)" fill-opacity=".35"/>
    <defs>
        <linearGradient id="a" x1="32.559" y1="25.632" x2="9.489" y2="3.867" gradientUnits="userSpaceOnUse">
            <stop stop-color="#fff"/>
            <stop offset="1" stop-color="#fff" stop-opacity="0"/>
        </linearGradient>
        <linearGradient id="b" x1="32.559" y1="25.632" x2="9.489" y2="3.867" gradientUnits="userSpaceOnUse">
            <stop stop-color="#fff"/>
            <stop offset="1" stop-color="#fff" stop-opacity="0"/>
        </linearGradient>
    </defs>
</svg>
