<svg width="90" height="90" viewBox="0 0 90 90" fill="none" xmlns="http://www.w3.org/2000/svg">
    <g clip-path="url(#a)" fill="#F6F8FB">
        <circle cx="5" cy="5" r="5"/>
        <circle cx="21" cy="5" r="5"/>
        <circle cx="37" cy="5" r="5"/>
        <circle cx="53" cy="5" r="5"/>
        <circle cx="69" cy="5" r="5"/>
        <circle cx="85" cy="5" r="5"/>
        <circle cx="5" cy="21" r="5"/>
        <circle cx="21" cy="21" r="5"/>
        <circle cx="37" cy="21" r="5"/>
        <circle cx="53" cy="21" r="5"/>
        <circle cx="69" cy="21" r="5"/>
        <circle cx="85" cy="21" r="5"/>
        <circle cx="5" cy="37" r="5"/>
        <circle cx="21" cy="37" r="5"/>
        <circle cx="37" cy="37" r="5"/>
        <circle cx="53" cy="37" r="5"/>
        <circle cx="69" cy="37" r="5"/>
        <circle cx="85" cy="37" r="5"/>
        <circle cx="5" cy="53" r="5"/>
        <circle cx="21" cy="53" r="5"/>
        <circle cx="37" cy="53" r="5"/>
        <circle cx="53" cy="53" r="5"/>
        <circle cx="69" cy="53" r="5"/>
        <circle cx="85" cy="53" r="5"/>
        <circle cx="5" cy="69" r="5"/>
        <circle cx="21" cy="69" r="5"/>
        <circle cx="37" cy="69" r="5"/>
        <circle cx="53" cy="69" r="5"/>
        <circle cx="69" cy="69" r="5"/>
        <circle cx="85" cy="69" r="5"/>
        <circle cx="5" cy="85" r="5"/>
        <circle cx="21" cy="85" r="5"/>
        <circle cx="37" cy="85" r="5"/>
        <circle cx="53" cy="85" r="5"/>
        <circle cx="69" cy="85" r="5"/>
        <circle cx="85" cy="85" r="5"/>
    </g>
    <defs>
        <clipPath id="a">
            <path fill="#fff" d="M0 0h90v90H0z"/>
        </clipPath>
    </defs>
</svg>
