<svg width="24" height="24" viewBox="0 0 24 24" fill="none" xmlns="http://www.w3.org/2000/svg">
<path d="M6 8.15572C6.74028 8.15572 7.38663 7.75907 7.73244 7.16952H14C15.1046 7.16952 16 8.05259 16 9.14192C16 10.2312 15.1046 11.1143 14 11.1143H10C7.79086 11.1143 6 12.8804 6 15.0591C6 17.2377 7.79086 19.0039 10 19.0039H16.2676C16.6134 19.5934 17.2597 19.9901 18 19.9901C19.1046 19.9901 20 19.107 20 18.0177C20 16.9284 19.1046 16.0453 18 16.0453C17.2597 16.0453 16.6134 16.4419 16.2676 17.0315H10C8.89543 17.0315 8 16.1484 8 15.0591C8 13.9698 8.89543 13.0867 10 13.0867H14C16.2091 13.0867 18 11.3206 18 9.14192C18 6.96327 16.2091 5.19713 14 5.19713H7.73244C7.38663 4.60758 6.74028 4.21094 6 4.21094C4.89543 4.21094 4 5.09401 4 6.18333C4 7.27265 4.89543 8.15572 6 8.15572Z" fill="#FFA722"/>
</svg>
