<svg width="24" height="24" viewBox="0 0 24 24" fill="none" xmlns="http://www.w3.org/2000/svg">
    <path d="M13 22h-3v-3h3v3zm0-5h-3v-.007c0-1.65 0-3.075.672-4.073a6.304 6.304 0 0 1 1.913-1.62c.334-.214.649-.417.914-.628a3.712 3.712 0 0 0 1.332-3.824A3.033 3.033 0 0 0 9 8H6a6 6 0 0 1 6-6 6.04 6.04 0 0 1 5.434 3.366 6.017 6.017 0 0 1-.934 6.3c-.453.502-.96.95-1.514 1.337a7.248 7.248 0 0 0-1.316 1.167A4.23 4.23 0 0 0 13 17z" fill="#F90" filter="url(#a)"/>
    <defs>
        <filter id="a" x="0" y="0" width="24" height="25" filterUnits="userSpaceOnUse" color-interpolation-filters="sRGB">
            <feFlood flood-opacity="0" result="BackgroundImageFix"/>
            <feColorMatrix in="SourceAlpha" values="0 0 0 0 0 0 0 0 0 0 0 0 0 0 0 0 0 0 127 0" result="hardAlpha"/>
            <feOffset dy="1"/>
            <feColorMatrix values="0 0 0 0 0.72549 0 0 0 0 0.34902 0 0 0 0 0.215686 0 0 0 1 0"/>
            <feBlend in2="BackgroundImageFix" result="effect1_dropShadow"/>
            <feBlend in="SourceGraphic" in2="effect1_dropShadow" result="shape"/>
            <feColorMatrix in="SourceAlpha" values="0 0 0 0 0 0 0 0 0 0 0 0 0 0 0 0 0 0 127 0" result="hardAlpha"/>
            <feMorphology radius="5" in="SourceAlpha" result="effect2_innerShadow"/>
            <feOffset/>
            <feGaussianBlur stdDeviation="10"/>
            <feComposite in2="hardAlpha" operator="arithmetic" k2="-1" k3="1"/>
            <feColorMatrix values="0 0 0 0 1 0 0 0 0 1 0 0 0 0 1 0 0 0 0.15 0"/>
            <feBlend in2="shape" result="effect2_innerShadow"/>
        </filter>
    </defs>
</svg>
