<svg id="Слой_1" xmlns="http://www.w3.org/2000/svg" viewBox="0 0 13 13">
    <style>
        .st0{fill:#fff}
    </style>
    <path class="st0" d="M3.4.9c.4.6 1.2 2 1.3 2.3.1.2.1.4.1.6 0 .2-.2.4-.3.5-.3.2-.6.4-.9.7-.1.3-.3 1.3 1.3 2.8S7.6 9.7 8 9.3c.3-.3.5-.7.7-.9.1-.2.3-.3.5-.3s.4 0 .6.2c.8.4 1.7.9 2.5 1.5.5.4.9.7.7 1.1-.2.5-.4.9-.8 1.3-.3.3-.7.5-1.1.6-.4.1-.8.1-1.2.1-1.2-.3-2.3-.8-3.3-1.4-1.1-.8-2-1.6-2.9-2.5-.8-.8-1.5-1.7-2.2-2.6C.8 5.3.4 4.1.1 2.8c-.1-.3-.1-.7 0-1 .1-.3.2-.6.5-.9C.9.5 1.4.2 2 0c.4-.1.8-.1 1.4.9zm3.1.2V0c1.7 0 3.4.7 4.6 1.9C12.3 3.1 13 4.8 13 6.5h-1.1c0-1.4-.6-2.8-1.6-3.8S8 1.1 6.5 1.1zm4.3 5.4h-1c0-.9-.3-1.7-1-2.3-.6-.6-1.4-1-2.3-1v-1c.6 0 1.1.1 1.7.3.5.2 1 .5 1.4.9.4.4.7.9.9 1.4.2.6.3 1.1.3 1.7z"/>
</svg>
