<?xml version="1.0" encoding="utf-8"?>
<!-- Generator: Adobe Illustrator 21.1.0, SVG Export Plug-In . SVG Version: 6.00 Build 0)  -->
<svg version="1.1" id="Слой_1" xmlns="http://www.w3.org/2000/svg" xmlns:xlink="http://www.w3.org/1999/xlink" x="0px" y="0px"
	 viewBox="0 0 13 13" style="enable-background:new 0 0 13 13;" xml:space="preserve">
<style type="text/css">
	.st0{fill:#FFFFFF;}
</style>
<path class="st0" d="M3.4,0.9c0.4,0.6,1.2,2,1.3,2.3c0.1,0.2,0.1,0.4,0.1,0.6c0,0.2-0.2,0.4-0.3,0.5C4.2,4.5,3.9,4.7,3.6,5
	C3.5,5.3,3.3,6.3,4.9,7.8S7.6,9.7,8,9.3C8.3,9,8.5,8.6,8.7,8.4C8.8,8.2,9,8.1,9.2,8.1c0.2,0,0.4,0,0.6,0.2c0.8,0.4,1.7,0.9,2.5,1.5
	c0.5,0.4,0.9,0.7,0.7,1.1c-0.2,0.5-0.4,0.9-0.8,1.3c-0.3,0.3-0.7,0.5-1.1,0.6c-0.4,0.1-0.8,0.1-1.2,0.1c-1.2-0.3-2.3-0.8-3.3-1.4
	c-1.1-0.8-2-1.6-2.9-2.5C2.9,8.2,2.2,7.3,1.5,6.4C0.8,5.3,0.4,4.1,0.1,2.8C0,2.5,0,2.1,0.1,1.8c0.1-0.3,0.2-0.6,0.5-0.9
	C0.9,0.5,1.4,0.2,2,0C2.4-0.1,2.8-0.1,3.4,0.9z M6.5,1.1V0c1.7,0,3.4,0.7,4.6,1.9C12.3,3.1,13,4.8,13,6.5h-1.1
	c0-1.4-0.6-2.8-1.6-3.8C9.3,1.7,8,1.1,6.5,1.1z M10.8,6.5H9.8c0-0.9-0.3-1.7-1-2.3c-0.6-0.6-1.4-1-2.3-1V2.2c0.6,0,1.1,0.1,1.7,0.3
	c0.5,0.2,1,0.5,1.4,0.9c0.4,0.4,0.7,0.9,0.9,1.4C10.7,5.4,10.8,5.9,10.8,6.5L10.8,6.5z"/>
</svg>
