<svg width="19" height="12" viewBox="0 0 19 12" fill="none" xmlns="http://www.w3.org/2000/svg">
    <path fill-rule="evenodd" clip-rule="evenodd" d="M11.238.97v4.015a.414.414 0 0 0 .153.351.427.427 0 0 0 .379.082c.375-.026 1.222-3.452 1.599-4.2.2-.42.52-.775.922-1.018a.766.766 0 0 1 .459-.192h3.598a.584.584 0 0 1 .44.346.565.565 0 0 1-.066.552c-.28.616-2.693 4.45-2.818 4.605-.15.2-.252.433-.296.679.049.29.184.559.39.773.25.278 2.27 2.465 2.458 2.656.178.202.297.447.344.71a.94.94 0 0 1-.355.564.963.963 0 0 1-.645.192h-2.928a3.51 3.51 0 0 1-1.19-.696c-.28-.247-1.323-1.42-1.48-1.575a.509.509 0 0 0-.438-.178c-.188 0-.544.018-.528.72.045.488-.059.976-.297 1.405a1.244 1.244 0 0 1-.921.339 6.318 6.318 0 0 1-3.643-.896C4.407 8.999 2.167 5.78 1.125 3.726A7.954 7.954 0 0 1 0 .38C.063.162.062.01.282.01h3.25c.183.09.336.229.44.402.093.123.808 2.234 1.027 2.605.218.371 1.297 2.404 1.882 2.404a.75.75 0 0 0 .477-.31.732.732 0 0 0 .116-.553V1.87A2.406 2.406 0 0 0 6.25.637 1.57 1.57 0 0 1 7.41.02c.75-.03 2.631-.03 3.037.03a.98.98 0 0 1 .56.323.956.956 0 0 1 .23.597z" fill="#6695BD"/>
</svg>
