<svg width="15" height="15" viewBox="0 0 15 15" fill="none" xmlns="http://www.w3.org/2000/svg">
    <path fill-rule="evenodd" clip-rule="evenodd" d="M7.5 14.972a7.453 7.453 0 0 1-3.99-1.17L0 14.972l1.17-3.511a7.486 7.486 0 1 1 6.33 3.511zm1.63-6.364a14.16 14.16 0 0 0 1.52.4.405.405 0 0 1 .34.476v.288a.661.661 0 0 1-.24.542c-.246.25-.538.451-.86.592a3.482 3.482 0 0 1-2.66-.8A8.807 8.807 0 0 1 5.92 9.03c-.4-.403-.76-.842-1.08-1.311a3.48 3.48 0 0 1-.79-2.655c.141-.32.341-.61.59-.856a.62.62 0 0 1 .54-.236h.29a.417.417 0 0 1 .47.355c.15.592.26 1.02.41 1.5.06.2-.01.248-.17.368-.1.077-.18.133-.26.192a.361.361 0 0 0-.17.509 5.6 5.6 0 0 0 .97 1.338 5.46 5.46 0 0 0 1.34.967.365.365 0 0 0 .51-.17c.06-.08.11-.156.19-.26a.283.283 0 0 1 .37-.171v.007z" fill="#fff"/>
</svg>
