<svg width="128" height="32" viewBox="0 0 128 32" fill="none" xmlns="http://www.w3.org/2000/svg">
    <path d="M12.527 3.697c2.264 0 4.237.374 5.917 1.12 1.68.748 2.976 1.822 3.887 3.222.91 1.4 1.365 3.034 1.365 4.902 0 1.867-.455 3.501-1.365 4.902-.91 1.4-2.206 2.474-3.887 3.22-1.68.748-3.653 1.121-5.917 1.121H8.99v6.022H.728V3.697h11.799zm-.525 12.115c1.12 0 1.96-.245 2.52-.735.56-.514.841-1.226.841-2.136 0-.91-.28-1.61-.84-2.1-.56-.514-1.4-.771-2.521-.771H8.99v5.742H12zM36.91 22.044h-2.24v6.162h-8.264V3.697h11.8c2.264 0 4.236.374 5.917 1.12 1.68.748 2.976 1.822 3.886 3.222.91 1.4 1.365 3.034 1.365 4.902 0 1.75-.396 3.28-1.19 4.586-.793 1.308-1.937 2.346-3.431 3.117l5.147 7.563h-8.823l-4.167-6.163zm4.131-9.103c0-.91-.28-1.61-.84-2.1-.56-.514-1.4-.771-2.52-.771h-3.012v5.742h3.011c1.12 0 1.96-.245 2.521-.735.56-.514.84-1.226.84-2.136zM65.345 28.767c-2.638 0-5.007-.549-7.108-1.646-2.1-1.097-3.747-2.614-4.937-4.552-1.19-1.96-1.786-4.166-1.786-6.617 0-2.45.596-4.645 1.786-6.582 1.19-1.961 2.836-3.49 4.937-4.587 2.1-1.097 4.47-1.646 7.108-1.646 2.637 0 5.006.549 7.107 1.646S76.2 7.409 77.39 9.37c1.19 1.937 1.786 4.131 1.786 6.582 0 2.45-.596 4.657-1.786 6.617-1.19 1.938-2.836 3.455-4.937 4.552-2.1 1.097-4.47 1.646-7.107 1.646zm0-6.688c1.027 0 1.949-.245 2.766-.735.84-.514 1.505-1.226 1.995-2.136.49-.933.736-2.019.736-3.256 0-1.237-.245-2.31-.736-3.221-.49-.934-1.155-1.646-1.995-2.136-.817-.514-1.74-.77-2.766-.77-1.028 0-1.961.257-2.801.77-.817.49-1.471 1.202-1.961 2.136-.49.91-.736 1.984-.736 3.221s.246 2.322.736 3.256c.49.91 1.144 1.622 1.96 2.136.84.49 1.774.735 2.802.735z" fill="#FDAB1E"/>
    <path d="M69.205 10.894c.844 0 1.575.141 2.192.422.627.282 1.108.681 1.444 1.199.336.517.504 1.13.504 1.838 0 .699-.168 1.312-.504 1.838-.336.518-.817.917-1.444 1.198-.617.273-1.348.409-2.192.409h-1.92v2.628H65.08v-9.532h4.125zM69.083 16c.662 0 1.166-.14 1.511-.422.345-.29.518-.699.518-1.225 0-.536-.173-.944-.518-1.226-.345-.29-.849-.435-1.511-.435h-1.798V16h1.798zM82.18 18.656v1.77H74.8v-9.532h7.203v1.77h-5.011v2.07h4.425v1.716h-4.425v2.206h5.188zM92.635 20.426l-.014-5.705-2.805 4.697h-.98l-2.805-4.589v5.597h-2.07v-9.532h1.825l3.567 5.923 3.513-5.923h1.825l.013 9.532h-2.07zM101.62 20.59c-.989 0-1.883-.214-2.682-.64a4.826 4.826 0 0 1-1.866-1.757c-.445-.754-.667-1.598-.667-2.533 0-.935.222-1.775.667-2.519a4.795 4.795 0 0 1 1.866-1.77c.799-.427 1.693-.64 2.682-.64.989 0 1.879.213 2.669.64a4.794 4.794 0 0 1 1.865 1.77c.454.744.681 1.584.681 2.519s-.227 1.78-.681 2.533a4.825 4.825 0 0 1-1.865 1.756c-.79.427-1.68.64-2.669.64zm0-1.88c.563 0 1.071-.127 1.525-.381a2.783 2.783 0 0 0 1.062-1.09c.263-.463.395-.989.395-1.579s-.132-1.117-.395-1.58a2.69 2.69 0 0 0-1.062-1.075 2.983 2.983 0 0 0-1.525-.395c-.563 0-1.071.132-1.525.395a2.784 2.784 0 0 0-1.076 1.075c-.254.463-.38.99-.38 1.58 0 .59.126 1.116.38 1.58.264.462.622.826 1.076 1.089.454.254.962.381 1.525.381zM117.276 10.894v9.532h-2.206v-3.908h-4.33v3.908h-2.206v-9.532h2.206v3.758h4.33v-3.758h2.206zM126.949 12.692h-3.05v7.734h-2.179v-7.734h-3.036v-1.798h8.265v1.798z" fill="#000"/>
</svg>
