<svg aria-hidden="true" style="position: absolute; width: 0; height: 0; overflow: hidden;" version="1.1" xmlns="http://www.w3.org/2000/svg" xmlns:xlink="http://www.w3.org/1999/xlink">
<defs>
<symbol id="icon-briefcase" viewBox="0 0 37 32">
<path d="M21.895 15.158h-6.737v3.368h6.737v-3.368z"></path>
<path d="M10.105 5.053v-1.684c0-1.86 1.508-3.368 3.368-3.368h10.105c1.86 0 3.368 1.508 3.368 3.368v1.684h5.053c2.791 0 5.053 2.262 5.053 5.053v16.842c0 2.791-2.262 5.053-5.053 5.053h-26.947c-2.791 0-5.053-2.262-5.053-5.053v-16.842c0-2.79 2.262-5.053 5.053-5.053h5.053zM13.474 3.368v1.684h10.105v-1.684h-10.105zM5.053 8.421c-0.93 0-1.684 0.754-1.684 1.684v10.105h30.316v-10.105c0-0.93-0.754-1.684-1.684-1.684h-26.947zM3.368 26.947c0 0.93 0.754 1.684 1.684 1.684h26.947c0.93 0 1.684-0.754 1.684-1.684v-3.368h-30.316v3.368z"></path>
</symbol>
<symbol id="icon-awards" viewBox="0 0 22 32">
<path d="M22.4 11.2c0-6.186-5.014-11.2-11.2-11.2s-11.2 5.014-11.2 11.2c0 3.806 1.898 7.169 4.8 9.192v11.608h4.137l2.263-2.263 2.263 2.263h4.137v-11.608c2.902-2.024 4.8-5.386 4.8-9.192zM19.2 11.2c0 4.418-3.582 8-8 8s-8-3.582-8-8c0-4.418 3.582-8 8-8s8 3.582 8 8zM8 28.412v-6.476c1.014 0.302 2.088 0.464 3.2 0.464s2.186-0.162 3.2-0.464v6.476l-3.2-3.2-3.2 3.2z"></path>
</symbol>
<symbol id="icon-center" viewBox="0 0 32 32">
<path d="M5.333 6.667c-0.736 0-1.333 0.597-1.333 1.333s0.597 1.333 1.333 1.333h21.333c0.736 0 1.333-0.597 1.333-1.333s-0.597-1.333-1.333-1.333h-21.333z"></path>
<path d="M5.333 17.333c-0.736 0-1.333 0.597-1.333 1.333s0.597 1.333 1.333 1.333h21.333c0.736 0 1.333-0.597 1.333-1.333s-0.597-1.333-1.333-1.333h-21.333z"></path>
<path d="M8 13.333c0-0.736 0.597-1.333 1.333-1.333h13.333c0.736 0 1.333 0.597 1.333 1.333s-0.597 1.333-1.333 1.333h-13.333c-0.736 0-1.333-0.597-1.333-1.333z"></path>
<path d="M9.333 22.667c-0.736 0-1.333 0.597-1.333 1.333s0.597 1.333 1.333 1.333h13.333c0.736 0 1.333-0.597 1.333-1.333s-0.597-1.333-1.333-1.333h-13.333z"></path>
</symbol>
<symbol id="icon-check" viewBox="0 0 32 32">
<path d="M10.909 28.446l-10.182-10.182 4.528-4.528 5.654 5.67 15.837-15.853 4.528 4.528-20.365 20.365z"></path>
<path d="M10.909 28.446l-10.182-10.182 4.528-4.528 5.654 5.67 15.837-15.853 4.528 4.528-20.365 20.365z"></path>
</symbol>
<symbol id="icon-close" viewBox="0 0 32 32">
<path d="M28.8 0l-12.8 12.8-12.8-12.8-3.2 3.2 12.8 12.8-12.8 12.8 3.2 3.2 12.8-12.8 12.8 12.8 3.2-3.2-12.8-12.8 12.8-12.8-3.2-3.2z"></path>
</symbol>
<symbol id="icon-double-arrow" viewBox="0 0 32 32">
<path d="M31.262 5.908l-3.446-3.446-13.785 14.031 14.031 14.031 3.446-3.446-10.585-10.585 10.338-10.585z"></path>
<path d="M14.031 2.462l3.446 3.446-10.585 10.585 10.338 10.338-3.446 3.446-13.785-13.785 14.031-14.031z"></path>
</symbol>
<symbol id="icon-doublecheck" viewBox="0 0 32 32">
<path d="M0.444 17.42l7.54 7.54 1.88-1.893-7.534-7.534-1.887 1.887zM29.663 7.041l-14.132 14.146-5.649-5.662-1.907 1.88 7.556 7.556 16.026-16.026-1.893-1.893zM24.012 8.932l-1.88-1.893-8.495 8.494 1.893 1.88 8.481-8.481z"></path>
</symbol>
<symbol id="icon-grid" viewBox="0 0 32 32">
<path d="M3.556 1.778c0 0.982-0.796 1.778-1.778 1.778s-1.778-0.796-1.778-1.778c0-0.982 0.796-1.778 1.778-1.778s1.778 0.796 1.778 1.778z"></path>
<path d="M9.244 1.778c0 0.982-0.796 1.778-1.778 1.778s-1.778-0.796-1.778-1.778c0-0.982 0.796-1.778 1.778-1.778s1.778 0.796 1.778 1.778z"></path>
<path d="M14.933 1.778c0 0.982-0.796 1.778-1.778 1.778s-1.778-0.796-1.778-1.778c0-0.982 0.796-1.778 1.778-1.778s1.778 0.796 1.778 1.778z"></path>
<path d="M20.622 1.778c0 0.982-0.796 1.778-1.778 1.778s-1.778-0.796-1.778-1.778c0-0.982 0.796-1.778 1.778-1.778s1.778 0.796 1.778 1.778z"></path>
<path d="M26.311 1.778c0 0.982-0.796 1.778-1.778 1.778s-1.778-0.796-1.778-1.778c0-0.982 0.796-1.778 1.778-1.778s1.778 0.796 1.778 1.778z"></path>
<path d="M32 1.778c0 0.982-0.796 1.778-1.778 1.778s-1.778-0.796-1.778-1.778c0-0.982 0.796-1.778 1.778-1.778s1.778 0.796 1.778 1.778z"></path>
<path d="M3.556 7.467c0 0.982-0.796 1.778-1.778 1.778s-1.778-0.796-1.778-1.778c0-0.982 0.796-1.778 1.778-1.778s1.778 0.796 1.778 1.778z"></path>
<path d="M9.244 7.467c0 0.982-0.796 1.778-1.778 1.778s-1.778-0.796-1.778-1.778c0-0.982 0.796-1.778 1.778-1.778s1.778 0.796 1.778 1.778z"></path>
<path d="M14.933 7.467c0 0.982-0.796 1.778-1.778 1.778s-1.778-0.796-1.778-1.778c0-0.982 0.796-1.778 1.778-1.778s1.778 0.796 1.778 1.778z"></path>
<path d="M20.622 7.467c0 0.982-0.796 1.778-1.778 1.778s-1.778-0.796-1.778-1.778c0-0.982 0.796-1.778 1.778-1.778s1.778 0.796 1.778 1.778z"></path>
<path d="M26.311 7.467c0 0.982-0.796 1.778-1.778 1.778s-1.778-0.796-1.778-1.778c0-0.982 0.796-1.778 1.778-1.778s1.778 0.796 1.778 1.778z"></path>
<path d="M32 7.467c0 0.982-0.796 1.778-1.778 1.778s-1.778-0.796-1.778-1.778c0-0.982 0.796-1.778 1.778-1.778s1.778 0.796 1.778 1.778z"></path>
<path d="M3.556 13.156c0 0.982-0.796 1.778-1.778 1.778s-1.778-0.796-1.778-1.778c0-0.982 0.796-1.778 1.778-1.778s1.778 0.796 1.778 1.778z"></path>
<path d="M9.244 13.156c0 0.982-0.796 1.778-1.778 1.778s-1.778-0.796-1.778-1.778c0-0.982 0.796-1.778 1.778-1.778s1.778 0.796 1.778 1.778z"></path>
<path d="M14.933 13.156c0 0.982-0.796 1.778-1.778 1.778s-1.778-0.796-1.778-1.778c0-0.982 0.796-1.778 1.778-1.778s1.778 0.796 1.778 1.778z"></path>
<path d="M20.622 13.156c0 0.982-0.796 1.778-1.778 1.778s-1.778-0.796-1.778-1.778c0-0.982 0.796-1.778 1.778-1.778s1.778 0.796 1.778 1.778z"></path>
<path d="M26.311 13.156c0 0.982-0.796 1.778-1.778 1.778s-1.778-0.796-1.778-1.778c0-0.982 0.796-1.778 1.778-1.778s1.778 0.796 1.778 1.778z"></path>
<path d="M32 13.156c0 0.982-0.796 1.778-1.778 1.778s-1.778-0.796-1.778-1.778c0-0.982 0.796-1.778 1.778-1.778s1.778 0.796 1.778 1.778z"></path>
<path d="M3.556 18.844c0 0.982-0.796 1.778-1.778 1.778s-1.778-0.796-1.778-1.778c0-0.982 0.796-1.778 1.778-1.778s1.778 0.796 1.778 1.778z"></path>
<path d="M9.244 18.844c0 0.982-0.796 1.778-1.778 1.778s-1.778-0.796-1.778-1.778c0-0.982 0.796-1.778 1.778-1.778s1.778 0.796 1.778 1.778z"></path>
<path d="M14.933 18.844c0 0.982-0.796 1.778-1.778 1.778s-1.778-0.796-1.778-1.778c0-0.982 0.796-1.778 1.778-1.778s1.778 0.796 1.778 1.778z"></path>
<path d="M20.622 18.844c0 0.982-0.796 1.778-1.778 1.778s-1.778-0.796-1.778-1.778c0-0.982 0.796-1.778 1.778-1.778s1.778 0.796 1.778 1.778z"></path>
<path d="M26.311 18.844c0 0.982-0.796 1.778-1.778 1.778s-1.778-0.796-1.778-1.778c0-0.982 0.796-1.778 1.778-1.778s1.778 0.796 1.778 1.778z"></path>
<path d="M32 18.844c0 0.982-0.796 1.778-1.778 1.778s-1.778-0.796-1.778-1.778c0-0.982 0.796-1.778 1.778-1.778s1.778 0.796 1.778 1.778z"></path>
<path d="M3.556 24.533c0 0.982-0.796 1.778-1.778 1.778s-1.778-0.796-1.778-1.778c0-0.982 0.796-1.778 1.778-1.778s1.778 0.796 1.778 1.778z"></path>
<path d="M9.244 24.533c0 0.982-0.796 1.778-1.778 1.778s-1.778-0.796-1.778-1.778c0-0.982 0.796-1.778 1.778-1.778s1.778 0.796 1.778 1.778z"></path>
<path d="M14.933 24.533c0 0.982-0.796 1.778-1.778 1.778s-1.778-0.796-1.778-1.778c0-0.982 0.796-1.778 1.778-1.778s1.778 0.796 1.778 1.778z"></path>
<path d="M20.622 24.533c0 0.982-0.796 1.778-1.778 1.778s-1.778-0.796-1.778-1.778c0-0.982 0.796-1.778 1.778-1.778s1.778 0.796 1.778 1.778z"></path>
<path d="M26.311 24.533c0 0.982-0.796 1.778-1.778 1.778s-1.778-0.796-1.778-1.778c0-0.982 0.796-1.778 1.778-1.778s1.778 0.796 1.778 1.778z"></path>
<path d="M32 24.533c0 0.982-0.796 1.778-1.778 1.778s-1.778-0.796-1.778-1.778c0-0.982 0.796-1.778 1.778-1.778s1.778 0.796 1.778 1.778z"></path>
<path d="M3.556 30.222c0 0.982-0.796 1.778-1.778 1.778s-1.778-0.796-1.778-1.778c0-0.982 0.796-1.778 1.778-1.778s1.778 0.796 1.778 1.778z"></path>
<path d="M9.244 30.222c0 0.982-0.796 1.778-1.778 1.778s-1.778-0.796-1.778-1.778c0-0.982 0.796-1.778 1.778-1.778s1.778 0.796 1.778 1.778z"></path>
<path d="M14.933 30.222c0 0.982-0.796 1.778-1.778 1.778s-1.778-0.796-1.778-1.778c0-0.982 0.796-1.778 1.778-1.778s1.778 0.796 1.778 1.778z"></path>
<path d="M20.622 30.222c0 0.982-0.796 1.778-1.778 1.778s-1.778-0.796-1.778-1.778c0-0.982 0.796-1.778 1.778-1.778s1.778 0.796 1.778 1.778z"></path>
<path d="M26.311 30.222c0 0.982-0.796 1.778-1.778 1.778s-1.778-0.796-1.778-1.778c0-0.982 0.796-1.778 1.778-1.778s1.778 0.796 1.778 1.778z"></path>
<path d="M32 30.222c0 0.982-0.796 1.778-1.778 1.778s-1.778-0.796-1.778-1.778c0-0.982 0.796-1.778 1.778-1.778s1.778 0.796 1.778 1.778z"></path>
</symbol>
<symbol id="icon-line" viewBox="0 0 32 32">
<path d="M8 10.874c0.987 0 1.849-0.529 2.31-1.315h8.357c1.473 0 2.667 1.177 2.667 2.63s-1.194 2.63-2.667 2.63h-5.333c-2.946 0-5.333 2.355-5.333 5.26s2.388 5.26 5.333 5.26h8.357c0.461 0.786 1.323 1.315 2.31 1.315 1.473 0 2.667-1.177 2.667-2.63s-1.194-2.63-2.667-2.63c-0.987 0-1.849 0.529-2.31 1.315h-8.357c-1.473 0-2.667-1.177-2.667-2.63s1.194-2.63 2.667-2.63h5.333c2.945 0 5.333-2.355 5.333-5.26s-2.388-5.26-5.333-5.26h-8.357c-0.461-0.786-1.323-1.315-2.31-1.315-1.473 0-2.667 1.177-2.667 2.63s1.194 2.63 2.667 2.63z"></path>
</symbol>
<symbol id="icon-phone" viewBox="0 0 32 32">
<path d="M30.4 16c0.884 0 1.608-0.718 1.52-1.597-0.156-1.553-0.538-3.078-1.138-4.526-0.804-1.941-1.983-3.705-3.468-5.191s-3.25-2.664-5.191-3.468c-1.447-0.6-2.972-0.982-4.526-1.138-0.879-0.088-1.597 0.636-1.597 1.52s0.719 1.59 1.596 1.7c1.133 0.142 2.244 0.436 3.303 0.874 1.553 0.643 2.964 1.586 4.153 2.775s2.131 2.6 2.775 4.152c0.439 1.059 0.732 2.17 0.875 3.303 0.11 0.877 0.816 1.596 1.7 1.596z"></path>
<path d="M0 12.8v-8c0-0.884 0.716-1.6 1.6-1.6h8c0.884 0 1.6 0.716 1.6 1.6v6.4c0 0.884-0.716 1.6-1.6 1.6-1.767 0-3.241 1.455-2.805 3.168 1.152 4.524 4.713 8.086 9.237 9.237 1.713 0.436 3.168-1.038 3.168-2.805 0-0.884 0.716-1.6 1.6-1.6h6.4c0.884 0 1.6 0.716 1.6 1.6v8c0 0.884-0.716 1.6-1.6 1.6h-8c-10.604 0-19.2-8.596-19.2-19.2z"></path>
<path d="M24.869 12.326c0.298 0.72 0.507 1.472 0.623 2.239 0.119 0.786-0.537 1.435-1.332 1.435s-1.424-0.652-1.594-1.429c-0.085-0.39-0.204-0.772-0.358-1.142-0.338-0.816-0.833-1.556-1.457-2.18s-1.365-1.119-2.18-1.457c-0.37-0.153-0.753-0.273-1.143-0.358-0.777-0.169-1.429-0.798-1.429-1.594s0.648-1.451 1.435-1.332c0.767 0.116 1.519 0.325 2.239 0.623 1.165 0.482 2.223 1.189 3.114 2.081s1.599 1.95 2.081 3.114z"></path>
</symbol>
<symbol id="icon-question" viewBox="0 0 32 32">
<path d="M17.333 29.333h-4v-4h4v4zM17.333 22.667h-4v-0.009c0-2.2 0-4.1 0.896-5.431 0.697-0.883 1.564-1.618 2.551-2.16 0.445-0.285 0.865-0.556 1.219-0.837 1.549-1.199 2.245-3.197 1.776-5.099-0.742-1.773-2.629-2.779-4.515-2.407s-3.248 2.021-3.26 3.943h-4c0-4.418 3.582-8 8-8 3.074-0.009 5.885 1.732 7.245 4.488 1.222 2.808 0.739 6.067-1.245 8.4-0.603 0.669-1.281 1.267-2.019 1.783-0.646 0.445-1.235 0.968-1.755 1.556-0.734 1.113-1.051 2.449-0.893 3.773z"></path>
</symbol>
<symbol id="icon-sad" viewBox="0 0 32 32">
<path d="M16 29.333c-7.364 0-13.333-5.97-13.333-13.333s5.97-13.333 13.333-13.333c7.364 0 13.333 5.97 13.333 13.333-0.008 7.36-5.973 13.325-13.333 13.333zM16 5.333c-5.891 0-10.667 4.776-10.667 10.667s4.776 10.667 10.667 10.667c5.891 0 10.667-4.776 10.667-10.667-0.007-5.888-4.778-10.66-10.667-10.667zM13.333 24c-0.019 0-0.187-0.007-1.333-0.007h-1.333v-0.032c0-0.015 0-0.033 0-0.056 0-0.044 0-0.104 0.009-0.177 0.015-0.199 0.037-0.388 0.069-0.576 0.1-0.607 0.289-1.196 0.56-1.748 0.371-0.762 0.936-1.413 1.64-1.885l0.019-0.012 0.021-0.016 0.020-0.011h0.033l0.015-0.009c0.886-0.541 1.908-0.82 2.947-0.804 1.079-0.029 2.143 0.266 3.053 0.847 0.703 0.473 1.269 1.124 1.64 1.885 0.273 0.551 0.461 1.141 0.559 1.748 0.043 0.251 0.061 0.452 0.069 0.576 0 0.059 0.008 0.117 0.009 0.177 0 0.023 0 0.041 0 0.056v0.027c0 0-0.053 0-1.333 0-1.208 0-1.333 0-1.333 0s0-0.039 0-0.079c0-0.073-0.017-0.187-0.041-0.328-0.056-0.345-0.162-0.681-0.315-0.996-0.165-0.346-0.419-0.643-0.735-0.86-0.475-0.28-1.022-0.415-1.573-0.387-0.552-0.024-1.1 0.115-1.573 0.4-0.316 0.218-0.569 0.514-0.735 0.86-0.153 0.315-0.258 0.651-0.315 0.996-0.019 0.109-0.032 0.218-0.040 0.328 0 0.037 0 0.064 0 0.077h-0.004v0.005zM11.333 16c-1.105 0-2-0.895-2-2s0.895-2 2-2 2 0.895 2 2c0 1.105-0.895 2-2 2zM20.657 15.981c-1.099 0-1.991-0.891-1.991-1.991s0.891-1.991 1.991-1.991 1.991 0.891 1.991 1.991c-0.001 1.099-0.892 1.989-1.991 1.991z"></path>
</symbol>
<symbol id="icon-telegram" viewBox="0 0 32 32">
<path d="M27.429 27.657c0 0.457-0.229 0.914-0.457 1.143-0.229 0.457-0.686 0.686-1.143 0.686-0.457 0.229-0.914 0.229-1.371 0s-0.914-0.457-1.143-0.686c-2.514-2.057-6.4-4.8-6.4-4.8s-2.743 5.029-3.2 5.486c-0.229 0.229-0.457 0.229-0.686 0.229s-0.457 0-0.686 0c-0.229 0-0.457 0-0.686-0.229-0.229 0-0.457-0.229-0.457-0.457 0 0 0-0.229 0-0.229l1.6-8 11.2-10.971-15.314 8.914c0 0-6.857-2.057-8-2.514-0.229 0-0.229-0.229-0.457-0.457-0.229-0.457-0.229-0.686-0.229-0.914s0.229-0.686 0.229-0.914c0.229-0.229 0.457-0.457 0.686-0.457 1.371-0.686 27.2-10.514 28.114-10.743 0.914-0.457 3.2-1.143 2.971 1.143s-4.343 22.629-4.571 23.771z"></path>
</symbol>
<symbol id="icon-trophy" viewBox="0 0 32 32">
<path d="M18 23.8c4.564-0.927 8-4.962 8-9.8v-14h-20v14c0 4.838 3.436 8.873 8 9.8v4.2h-4v4h12v-4h-4v-4.2zM10 4h12v10c0 3.314-2.686 6-6 6s-6-2.686-6-6v-10z"></path>
<path d="M28 4h4v10h-4v-10z"></path>
<path d="M4 4h-4v10h4v-10z"></path>
</symbol>
<symbol id="icon-viber" viewBox="0 0 32 32">
<path d="M8.369 2.215c0.985 1.477 2.954 4.923 3.2 5.662 0.246 0.492 0.246 0.985 0.246 1.477s-0.492 0.985-0.738 1.231c-0.738 0.492-1.477 0.985-2.215 1.723-0.246 0.738-0.738 3.2 3.2 6.892s6.646 4.677 7.631 3.692c0.738-0.738 1.231-1.723 1.723-2.215 0.246-0.492 0.738-0.738 1.231-0.738s0.985 0 1.477 0.492c1.969 0.985 4.185 2.215 6.154 3.692 1.231 0.985 2.215 1.723 1.723 2.708-0.492 1.231-0.985 2.215-1.969 3.2-0.738 0.738-1.723 1.231-2.708 1.477s-1.969 0.246-2.954 0.246c-2.954-0.738-5.662-1.969-8.123-3.446-2.708-1.969-4.923-3.938-7.138-6.154-1.969-1.969-3.692-4.185-5.415-6.4-1.723-2.708-2.708-5.662-3.446-8.862-0.246-0.738-0.246-1.723 0-2.462s0.492-1.477 1.231-2.215c0.738-0.985 1.969-1.723 3.446-2.215 0.985-0.246 1.969-0.246 3.446 2.215zM16 2.708v-2.708c4.185 0 8.369 1.723 11.323 4.677s4.677 7.138 4.677 11.323h-2.708c0-3.446-1.477-6.892-3.938-9.354s-5.662-3.938-9.354-3.938zM26.585 16h-2.462c0-2.215-0.738-4.185-2.462-5.662-1.477-1.477-3.446-2.462-5.662-2.462v-2.462c1.477 0 2.708 0.246 4.185 0.738 1.231 0.492 2.462 1.231 3.446 2.215s1.723 2.215 2.215 3.446c0.492 1.477 0.738 2.708 0.738 4.185v0z"></path>
</symbol>
<symbol id="icon-vk" viewBox="0 0 32 32">
<path d="M18.926 7.528v6.763c-0.007 0.112 0.012 0.224 0.057 0.326s0.114 0.194 0.202 0.265 0.191 0.121 0.302 0.145c0.111 0.024 0.226 0.022 0.336-0.007 0.632-0.044 2.059-5.814 2.693-7.072 0.336-0.71 0.877-1.306 1.554-1.715 0.213-0.191 0.486-0.305 0.773-0.324h6.059c0.164 0.027 0.317 0.095 0.447 0.197s0.231 0.235 0.294 0.386c0.063 0.151 0.086 0.316 0.067 0.478s-0.080 0.317-0.177 0.45c-0.474 1.038-4.537 7.496-4.747 7.757-0.253 0.338-0.424 0.729-0.499 1.142 0.083 0.489 0.311 0.942 0.657 1.302 0.421 0.469 3.823 4.153 4.141 4.475 0.3 0.339 0.5 0.753 0.579 1.196-0.076 0.378-0.289 0.715-0.599 0.95s-0.696 0.349-1.085 0.323c-1.318 0-4.56 0-4.931 0-0.741-0.256-1.422-0.654-2.004-1.173-0.474-0.415-2.23-2.392-2.493-2.651-0.089-0.106-0.203-0.188-0.332-0.241s-0.269-0.073-0.407-0.060c-0.316 0-0.916 0.031-0.888 1.215 0.075 0.82-0.099 1.643-0.501 2.365-0.205 0.194-0.449 0.345-0.716 0.443s-0.551 0.142-0.836 0.128c-2.153 0.129-4.295-0.398-6.135-1.509-3.314-2.029-7.086-7.45-8.842-10.909-1.047-1.717-1.694-3.643-1.895-5.637 0.105-0.365 0.105-0.623 0.476-0.623s5.030 0 5.474 0c0.308 0.15 0.565 0.385 0.739 0.677 0.158 0.208 1.362 3.762 1.73 4.387s2.185 4.049 3.171 4.049c0.327-0.063 0.616-0.252 0.803-0.524s0.257-0.606 0.195-0.93c0-0.831 0-4.109 0-4.527-0.4-0.921-1.135-1.661-2.059-2.076 0.23-0.302 0.524-0.551 0.861-0.73s0.709-0.284 1.091-0.308c1.263-0.052 4.432-0.052 5.116 0.050 0.367 0.071 0.699 0.263 0.941 0.544s0.379 0.636 0.39 1.005z"></path>
</symbol>
<symbol id="icon-whatsapp" viewBox="0 0 32 32">
<path d="M16 31.94c3.542 0.006 6.985-1.165 9.788-3.329s4.808-5.199 5.698-8.626c0.89-3.428 0.616-7.054-0.78-10.309s-3.834-5.953-6.931-7.671c-3.097-1.718-6.677-2.357-10.178-1.818s-6.722 2.226-9.158 4.797c-2.437 2.57-3.95 5.877-4.302 9.401s0.478 7.065 2.359 10.066l-2.496 7.49 7.488-2.496c2.543 1.623 5.495 2.488 8.512 2.496zM19.477 18.364c1.064 0.344 2.147 0.629 3.243 0.853 0.115 0.017 0.226 0.057 0.325 0.118s0.186 0.141 0.253 0.236c0.068 0.095 0.116 0.202 0.141 0.316s0.027 0.231 0.006 0.346v0.614c0.010 0.219-0.030 0.438-0.119 0.639s-0.224 0.378-0.393 0.518c-0.526 0.534-1.148 0.962-1.835 1.263-1.012 0.12-2.039 0.031-3.015-0.263s-1.882-0.785-2.66-1.444c-1.003-0.673-1.939-1.441-2.795-2.293-0.852-0.86-1.623-1.796-2.304-2.797-0.654-0.778-1.14-1.683-1.43-2.657s-0.377-1.998-0.255-3.007c0.301-0.682 0.728-1.302 1.259-1.826 0.135-0.173 0.311-0.309 0.512-0.397s0.421-0.124 0.64-0.106h0.618c0.233-0.032 0.47 0.029 0.658 0.171s0.312 0.353 0.345 0.586c0.32 1.263 0.555 2.176 0.875 3.2 0.128 0.427-0.021 0.529-0.363 0.785-0.213 0.164-0.384 0.284-0.555 0.41-0.099 0.043-0.188 0.106-0.261 0.186s-0.128 0.174-0.162 0.276c-0.034 0.102-0.047 0.211-0.036 0.318s0.043 0.211 0.097 0.305c0.545 1.049 1.242 2.011 2.069 2.854 0.843 0.829 1.807 1.524 2.859 2.063 0.094 0.052 0.198 0.085 0.305 0.095s0.215-0.002 0.318-0.036c0.102-0.034 0.197-0.089 0.277-0.161s0.144-0.16 0.188-0.258c0.128-0.173 0.235-0.335 0.405-0.557 0.027-0.077 0.068-0.147 0.123-0.207s0.121-0.109 0.194-0.143c0.074-0.034 0.154-0.053 0.235-0.055s0.162 0.011 0.237 0.041v0.015z"></path>
</symbol>
<symbol id="icon-zoom" viewBox="0 0 32 32">
<path d="M20.457 20.323c3.124-3.124 3.124-8.189 0-11.314s-8.189-3.124-11.314 0-3.124 8.19 0 11.314c3.124 3.124 8.19 3.124 11.314 0zM22.343 7.124c3.847 3.847 4.141 9.901 0.883 14.086 0.020 0.018 0.040 0.037 0.060 0.056l5.657 5.657c0.521 0.521 0.521 1.365 0 1.886s-1.365 0.521-1.886 0l-5.657-5.657c-0.020-0.020-0.038-0.040-0.056-0.060-4.185 3.258-10.239 2.964-14.086-0.883-4.166-4.166-4.166-10.919 0-15.085s10.919-4.166 15.085 0zM13.467 9.333h2.667v4h4v2.667h-4v4h-2.667v-4h-4v-2.667h4v-4z"></path>
</symbol>
</defs>
</svg>
